<?xml version="1.0" encoding="UTF-8" standalone="no"?><!DOCTYPE svg PUBLIC "-//W3C//DTD SVG 1.1//EN" "http://www.w3.org/Graphics/SVG/1.1/DTD/svg11.dtd"><svg width="2084px" height="1475px" version="1.1" xmlns="http://www.w3.org/2000/svg" xmlns:xlink="http://www.w3.org/1999/xlink" xml:space="preserve" xmlns:serif="http://www.serif.com/" style="fill-rule:evenodd;clip-rule:evenodd;stroke-linejoin:round;stroke-miterlimit:2;"><path d="M503.103,1344.75c4.052,-4.399 8.243,-8.981 12.571,-13.746c4.325,-4.764 8.515,-9.484 12.569,-14.16c4.053,-4.675 7.874,-9.12 11.464,-13.334c3.591,-4.215 6.676,-7.882 9.255,-10.998l48.999,-0c-9.775,11.226 -19.317,21.942 -28.623,32.149c-9.312,10.209 -19.499,20.741 -30.56,31.596c6.097,5.577 11.824,11.546 17.146,17.867c5.899,6.929 11.614,14.087 17.147,21.472c5.53,7.389 10.6,14.776 15.21,22.16c4.606,7.389 8.478,14.13 11.615,20.223l-47.381,-0c-2.946,-4.806 -6.305,-10.12 -10.077,-15.943c-3.772,-5.818 -7.775,-11.638 -12.008,-17.46c-4.236,-5.819 -8.698,-11.408 -13.387,-16.768c-4.246,-4.923 -8.91,-9.469 -13.94,-13.587l-0,63.758l-41.207,-0l-0,-207.967l41.207,-6.641l-0,121.379Z" style="fill:#326ce5;fill-rule:nonzero;"/><path d="M743.429,1433.01c-8.912,2.435 -17.964,4.328 -27.104,5.669c-11.529,1.786 -23.179,2.665 -34.845,2.628c-10.502,0.314 -20.968,-1.377 -30.837,-4.98c-7.602,-2.881 -14.323,-7.695 -19.497,-13.965c-4.946,-6.304 -8.44,-13.622 -10.231,-21.432c-2.106,-8.972 -3.127,-18.164 -3.042,-27.38l0,-81.03l41.205,-0l-0,76.054c-0,13.273 1.752,22.859 5.255,28.759c3.499,5.904 10.044,8.854 19.635,8.85c2.948,0 6.083,-0.138 9.404,-0.415c3.318,-0.276 6.268,-0.599 8.85,-0.968l-0,-112.28l41.206,-0l0,140.49Z" style="fill:#326ce5;fill-rule:nonzero;"/><path d="M917.377,1365.25c0.146,10.727 -1.586,21.397 -5.117,31.527c-3.155,8.985 -8.2,17.19 -14.795,24.06c-6.704,6.8 -14.825,12.041 -23.783,15.348c-10.273,3.747 -21.147,5.576 -32.08,5.396c-4.979,-0 -10.188,-0.231 -15.627,-0.692c-5.441,-0.463 -10.787,-1.063 -16.04,-1.798c-5.254,-0.741 -10.277,-1.617 -15.072,-2.629c-4.795,-1.009 -9.036,-2.068 -12.722,-3.178l0,-203.267l41.207,-6.641l0,72.461c4.627,-2.036 9.444,-3.612 14.38,-4.704c5.271,-1.137 10.65,-1.694 16.042,-1.66c9.407,-0.184 18.745,1.656 27.378,5.396c7.759,3.466 14.584,8.727 19.912,15.348c5.584,7.1 9.718,15.228 12.168,23.922c2.876,10.116 4.273,20.595 4.149,31.111Zm-42.037,-1.106c-0,-26.551 -9.772,-39.825 -29.315,-39.824c-4.249,0.001 -8.479,0.559 -12.582,1.66c-3.557,0.86 -6.961,2.258 -10.095,4.147l-0,74.947c2.026,0.37 4.607,0.693 7.743,0.968c3.133,0.277 6.545,0.415 10.234,0.415c9.88,0.628 19.445,-3.739 25.441,-11.617c6.096,-9.037 9.105,-19.809 8.574,-30.697l-0,0.001Z" style="fill:#326ce5;fill-rule:nonzero;"/><path d="M942.265,1366.36c-0.242,-11.572 1.778,-23.08 5.945,-33.879c3.54,-9.028 8.854,-17.257 15.627,-24.198c6.326,-6.373 13.907,-11.364 22.261,-14.657c8.224,-3.288 17.001,-4.979 25.859,-4.98c20.646,-0 36.962,6.315 48.95,18.945c11.983,12.631 17.975,31.206 17.976,55.725c0,2.401 -0.097,5.026 -0.276,7.882c-0.187,2.86 -0.372,5.395 -0.554,7.605l-93.477,-0c0.739,8.167 5.108,15.585 11.894,20.19c8.393,5.368 18.259,7.979 28.208,7.467c7.47,0.008 14.923,-0.687 22.262,-2.075c6.117,-1.041 12.099,-2.756 17.839,-5.115l5.531,33.464c-2.854,1.348 -5.814,2.457 -8.852,3.316c-4.045,1.192 -8.153,2.161 -12.304,2.905c-4.521,0.83 -9.361,1.522 -14.521,2.075c-5.143,0.553 -10.313,0.83 -15.486,0.83c-11.651,0.253 -23.244,-1.719 -34.156,-5.81c-9.087,-3.475 -17.301,-8.904 -24.06,-15.902c-6.419,-6.827 -11.237,-14.999 -14.103,-23.922c-3.108,-9.647 -4.649,-19.731 -4.563,-29.866Zm96.793,-15.763c-0.181,-3.472 -0.785,-6.908 -1.798,-10.234c-0.97,-3.23 -2.567,-6.238 -4.7,-8.85c-2.208,-2.648 -4.938,-4.813 -8.02,-6.36c-3.755,-1.774 -7.879,-2.628 -12.03,-2.49c-4.089,-0.104 -8.15,0.699 -11.892,2.352c-3.176,1.459 -6.005,3.581 -8.296,6.221c-2.253,2.65 -3.988,5.699 -5.117,8.989c-1.189,3.37 -2.069,6.842 -2.629,10.372l54.482,-0Z" style="fill:#326ce5;fill-rule:nonzero;"/><path d="M1162.95,1288.64c10.297,-0.268 20.57,1.133 30.42,4.15c7.372,2.311 14.068,6.394 19.498,11.89c4.964,5.311 8.529,11.775 10.372,18.807c2.109,8.032 3.131,16.31 3.04,24.613l-0,85.734c-5.9,1.29 -14.105,2.811 -24.614,4.562c-12.629,1.904 -25.392,2.783 -38.163,2.628c-8.591,0.081 -17.167,-0.753 -25.582,-2.49c-7.057,-1.412 -13.772,-4.183 -19.771,-8.158c-5.479,-3.715 -9.871,-8.822 -12.724,-14.795c-3.146,-7.037 -4.658,-14.696 -4.423,-22.4c-0.237,-7.517 1.529,-14.963 5.115,-21.574c3.298,-5.781 8.008,-10.634 13.688,-14.103c6.063,-3.638 12.705,-6.21 19.637,-7.605c7.548,-1.585 15.241,-2.374 22.953,-2.352c4.757,-0.027 9.511,0.204 14.242,0.692c3.408,0.328 6.784,0.929 10.095,1.798l0,-3.874c0.286,-6.255 -2.015,-12.36 -6.36,-16.87c-4.244,-4.236 -11.618,-6.355 -22.123,-6.36c-6.942,-0.002 -13.876,0.507 -20.744,1.522c-6.03,0.823 -11.961,2.259 -17.7,4.285l-5.253,-33.183c2.393,-0.736 5.389,-1.52 8.989,-2.352c3.597,-0.83 7.515,-1.568 11.755,-2.213c4.236,-0.643 8.706,-1.197 13.411,-1.66c4.7,-0.456 9.447,-0.687 14.242,-0.692Zm3.32,120.581c4.053,0 7.924,-0.092 11.613,-0.277c2.963,-0.112 5.918,-0.39 8.85,-0.83l-0,-31.25c-2.469,-0.493 -4.961,-0.863 -7.467,-1.107c-3.029,-0.352 -6.076,-0.537 -9.127,-0.553c-3.651,-0.013 -7.3,0.218 -10.921,0.692c-3.12,0.375 -6.157,1.262 -8.988,2.624c-2.458,1.184 -4.558,2.999 -6.087,5.257c-1.551,2.482 -2.321,5.373 -2.21,8.297c-0.558,5.334 1.966,10.544 6.498,13.412c5.526,2.759 11.671,4.046 17.839,3.735Z" style="fill:#326ce5;fill-rule:nonzero;"/><path d="M1391.94,1433.28c-3.69,1.103 -7.932,2.162 -12.724,3.178c-4.793,1.017 -9.817,1.893 -15.071,2.629c-5.253,0.732 -10.6,1.332 -16.04,1.798c-5.44,0.456 -10.649,0.686 -15.625,0.692c-10.921,0.175 -21.786,-1.605 -32.08,-5.257c-8.943,-3.208 -17.065,-8.355 -23.784,-15.072c-6.594,-6.764 -11.642,-14.879 -14.794,-23.783c-3.542,-10.08 -5.275,-20.706 -5.119,-31.389c-0.14,-10.809 1.353,-21.578 4.427,-31.941c2.595,-8.829 6.919,-17.055 12.72,-24.199c5.483,-6.599 12.449,-11.811 20.328,-15.21c8.708,-3.639 18.079,-5.43 27.515,-5.257c5.165,-0.061 10.319,0.496 15.352,1.66c4.691,1.167 9.271,2.741 13.688,4.704l0,-65.82l41.207,-6.641l0,209.908Zm-93.2,-69.14c-0.533,10.887 2.475,21.66 8.573,30.696c5.996,7.88 15.562,12.247 25.443,11.617c3.687,0 7.098,-0.138 10.234,-0.415c3.133,-0.276 5.714,-0.599 7.743,-0.968l0,-74.947c-3.134,-1.888 -6.538,-3.287 -10.095,-4.147c-4.103,-1.1 -8.333,-1.658 -12.581,-1.66c-19.548,0 -29.32,13.275 -29.317,39.824Z" style="fill:#326ce5;fill-rule:nonzero;"/><path d="M1510.58,1360.83c0,-13.277 -1.706,-22.68 -5.118,-28.21c-3.882,-5.77 -10.636,-8.962 -17.558,-8.297c-2.588,0 -5.262,0.138 -8.02,0.415c-2.767,0.277 -5.441,0.6 -8.02,0.968l-0,112.281l-41.207,-0l-0,-140.491c3.499,-0.92 7.601,-1.887 12.305,-2.901c4.703,-1.013 9.681,-1.936 14.933,-2.767c5.257,-0.83 10.65,-1.476 16.178,-1.937c5.534,-0.456 10.973,-0.686 16.317,-0.692c8.704,-0.297 17.386,1.065 25.582,4.012c5.877,2.278 11.342,5.501 16.178,9.542c12.232,-8.419 26.64,-13.127 41.484,-13.554c9.768,-0.326 19.503,1.321 28.621,4.842c7.052,2.904 13.209,7.628 17.839,13.689c4.572,6.236 7.691,13.417 9.126,21.016c1.737,8.928 2.572,18.008 2.491,27.104l-0,82.137l-41.207,-0l-0,-77.157c-0,-13.277 -1.705,-22.68 -5.115,-28.21c-3.883,-5.771 -10.639,-8.962 -17.562,-8.297c-3.146,0.158 -6.26,0.716 -9.265,1.66c-3.459,0.89 -6.768,2.288 -9.818,4.147c1.309,4.369 2.144,8.867 2.49,13.415c0.366,4.7 0.551,9.724 0.553,15.072l0,79.37l-41.207,-0l0,-77.157Z" style="fill:#326ce5;fill-rule:nonzero;"/><path d="M850.882,860.503c-113.24,-162.403 -198.489,-335.785 -210.761,-537.583c-3.196,-52.564 3.642,-104.079 25.725,-152.688c15.467,-34.048 36.041,-67.197 72.241,-77.77c44.998,-13.142 68.439,-54.251 109.901,-67.311c17.416,-5.897 36.299,-5.897 53.715,-0c8.426,2.383 16.522,5.806 24.102,10.19c33.908,22.103 50.914,59.167 44.035,96.426c-7.465,37.853 -37.128,67.645 -74.948,75.277c-36.972,7.936 -75.093,-8.612 -97.111,-42.157c-18.845,-28.712 -29.956,-30.258 -54.907,-4.184c-38.734,40.477 -46.705,92.35 -47.199,144.996c-1.066,113.763 32.422,219.924 77.298,322.805c33.237,76.82 75.104,149.612 124.792,216.971c17.437,23.514 19.311,18.486 41.79,52.204c14.415,-1.552 -8.602,9.74 2.56,6.594c14.746,16.168 29.894,33.206 45.562,49.752c6.752,7.131 16.643,13.966 3.603,22.599c-9.501,6.289 -18.814,25.664 -32.538,8.715" style="fill:#75c5f0;fill-rule:nonzero;"/><g opacity="0.49"><path d="M1019.06,372.467c-81.207,2.241 -164.443,9.169 -246.572,27.4c-10.856,2.41 -27.819,19.525 -34.195,-7.515c-5.209,-22.093 5.184,-29.763 24.926,-34.637c129.813,-32.049 261.424,-38.819 394.004,-27.2c106.891,9.367 211.169,31.069 308.539,78.52c59.722,29.105 113.138,65.921 147.96,124.812c9.376,15.856 17.29,32.394 19.611,50.519c6.367,49.711 3.856,93.628 3.247,150.197c-3.524,46.729 -44.421,87.87 -92.807,86.868c-50.799,-1.097 -92.054,-43.045 -92.305,-93.855c-0.418,-50.995 38.722,-94.637 91.368,-92.989c37.986,1.189 36.51,-18.499 31.23,-42.339c-8.87,-40.046 -35.977,-68.437 -67.304,-92.163c-78.324,-59.319 -169.714,-87.392 -264.366,-106.17c-72.769,-14.437 -146.58,-20.066 -223.336,-21.448Z" style="fill:#75c5f0;fill-rule:nonzero;"/></g><g opacity="0.75"><path d="M1153.71,945.584c-63.704,72.503 -132.827,138.917 -221.562,179.7c-82.767,38.04 -165.447,51.99 -237.826,-23.524c-8.656,-9.031 -19.031,-8.72 -29.66,-10.629c-55.53,-9.975 -89.555,-63.263 -74.802,-116.435c14.963,-53.935 71.254,-84.766 122.928,-63.232c47.222,19.678 83.645,80.453 49.177,131.193c-23.243,34.216 -1.507,40.325 21.842,48.2c37.988,12.812 74.413,2.105 109.945,-10.785c46.157,-16.743 86.28,-44.256 123.402,-75.63c160.844,-135.938 265.027,-309.14 332.053,-506.769c3.872,-11.416 -3.182,-35.388 25.543,-27.222c27.18,7.727 20.311,23.811 14.932,42.102c-40.827,138.829 -107.474,264.47 -193.842,379.978" style="fill:#75c5f0;fill-rule:nonzero;"/></g><g opacity="0.49"><path d="M442.542,611.158c3.212,-81.197 56.318,-127.928 116.585,-169.624c7.653,-5.945 16.091,-10.804 25.074,-14.439c9.042,-3.033 19.328,-22.029 28.433,-2.553c6.515,13.936 9.609,28.991 -10.985,39.108c-28.172,14.208 -53.954,32.728 -76.411,54.891c-57.949,55.96 -61.377,122.516 -8.789,183.865c26.398,30.181 58.651,54.69 94.8,72.039c15.611,7.74 25.031,18.926 16.771,33.807c-9.043,16.29 -21.934,0.387 -30.353,-3.913c-54.534,-27.856 -103.32,-62.864 -135.375,-117.172c-13.202,-23.136 -20.02,-49.372 -19.75,-76.009Z" style="fill:#75c5f0;fill-rule:nonzero;"/></g><g opacity="0.75"><path d="M1422.21,309.244c0.112,5.141 4.244,34.064 -14.764,33.981c-22.994,-0.102 -28.173,-15.229 -27.106,-37.087c2.277,-35.142 -2.702,-70.379 -14.626,-103.514c-23.764,-63.311 -73.14,-92.211 -139.654,-82.661c-43.211,6.678 -84.339,23.113 -120.252,48.055c-14.758,9.906 -28.82,11.712 -37.095,-2.842c-9.009,-15.843 10.594,-18.8 18.993,-24.344c42.721,-28.2 88.285,-49.884 140.053,-56.184c84.738,-10.312 156.406,36.373 179.171,118.601c9.268,34.603 14.397,70.183 15.279,105.995Z" style="fill:#75c5f0;fill-rule:nonzero;"/></g><path d="M1417.68,929.136c1.202,37.594 -5.077,75.055 -18.471,110.203c-33.846,85.125 -110.308,123.892 -199.189,100.806c-37.48,-9.878 -73.246,-25.378 -106.081,-45.973c-7.096,-4.403 -26.605,-5.924 -13.153,-21.407c8.342,-9.6 17.685,-24.641 36.108,-11.941c27.07,18.661 57.42,30.906 88.816,40.415c75.099,22.747 138.554,-9.418 164.132,-83.589c12.547,-36.759 17.942,-75.582 15.894,-114.369c-0.762,-16.289 -1.822,-35.534 20.003,-34.7c19.203,0.733 8.855,20.551 11.494,31.62c2.185,9.16 0.447,19.254 0.447,28.935Z" style="fill:#75c5f0;fill-rule:nonzero;"/><g opacity="0.75"><path d="M698.514,688.339c16.784,10.798 13.175,24.071 9.244,36.887c-14.89,46.216 -25.254,93.769 -30.946,141.99c-0.8,7.666 0.699,20.125 -11.561,18.427c-11.908,-1.649 -7.064,-13.63 -6.333,-20.907c5.717,-60.232 19.021,-119.501 39.596,-176.397Z" style="fill:#75c5f0;fill-rule:nonzero;"/></g><path d="M1138.79,286.921c-15.666,8.266 -25.167,2.875 -34.088,-6.793c-35.272,-38.228 -72.227,-74.626 -114.972,-104.684c-5.583,-3.926 -14.093,-8.332 -8.478,-16.762c5.83,-8.753 12.844,-1.982 18.392,1.88c51.412,36.224 98.149,78.666 139.146,126.359Z" style="fill:#75c5f0;fill-rule:nonzero;"/><g opacity="0.49"><path d="M1264.2,868.629c1.9,-22.764 15.704,-25.077 28.732,-28.035c47.406,-10.252 93.735,-24.966 138.368,-43.946c7.649,-3.342 19.175,-12.875 24.659,1.022c4.875,12.351 -9.745,11.716 -16.049,14.631c-55.063,25.462 -112.775,42.669 -175.71,56.328Z" style="fill:#75c5f0;fill-rule:nonzero;"/></g><g opacity="0.75"><path d="M773.613,562.3c-11.865,-48.8 36.821,-134.098 79.202,-138.926c-23.981,40.597 -53.163,94.847 -79.202,138.926Z" style="fill:#75c5f0;fill-rule:nonzero;"/></g><path d="M1289.55,551.878c-23.621,-42.118 -45.283,-80.745 -67.198,-119.823c41.485,3.424 85.609,77.306 67.198,119.823Z" style="fill:#75c5f0;fill-rule:nonzero;"/><g opacity="0.75"><path d="M923.026,287.794c19.211,-20.398 35.905,-37.556 51.912,-55.333c9.583,-10.642 17.938,-9.633 27.219,-0.022c11.87,12.29 -1.571,17.312 -7.403,22.594c-18.807,17.029 -32.545,44.69 -71.728,32.761Z" style="fill:#75c5f0;fill-rule:nonzero;"/></g><path d="M1370.03,681.768c13.388,22.885 17.11,48.185 24.543,72.201c3.39,10.95 1.196,18.716 -10.599,22.567c-14.085,4.6 -16.962,-5.063 -18.676,-14.926c-4.517,-25.996 -23.882,-52.441 4.732,-79.842Z" style="fill:#75c5f0;fill-rule:nonzero;"/><g opacity="0.49"><path d="M809.472,873.98c-28.562,-7.104 -53.884,-13.618 -79.323,-19.635c-12.173,-2.88 -15.101,-9.793 -11.489,-21.084c3.61,-11.285 11.4,-10.518 20.063,-7.507c26.094,9.071 58.99,7.001 70.749,48.226Z" style="fill:#75c5f0;fill-rule:nonzero;"/></g><path d="M1236.17,654.787c-1.03,-0.238 -2.5,-0.644 -3.509,-0.83c-3.836,-0.53 -7.7,-0.841 -11.571,-0.932c-7.315,-0.478 -14.565,-1.667 -21.649,-3.552c-2.186,-1.231 -3.988,-3.045 -5.205,-5.239l-4.873,-1.419c5.208,-38.054 -3.742,-76.727 -25.138,-108.625c1.246,-1.133 3.609,-3.223 4.275,-3.838c-0.166,-2.486 0.647,-4.941 2.265,-6.835c5.56,-4.777 11.572,-9.001 17.951,-12.612c3.453,-1.755 6.802,-3.709 10.03,-5.851c0.778,-0.578 1.841,-1.493 2.656,-2.145c3.492,-2.226 5.612,-6.09 5.612,-10.231c0,-6.655 -5.476,-12.132 -12.131,-12.132c-3.184,0 -6.243,1.254 -8.512,3.488c-0.824,0.649 -1.945,1.501 -2.677,2.136c-2.819,2.655 -5.483,5.472 -7.976,8.436c-4.934,5.424 -10.384,10.355 -16.272,14.723c-2.319,0.943 -4.855,1.218 -7.322,0.795l-4.593,3.28c-26.423,-27.73 -62.04,-44.939 -100.186,-48.408c-0.111,-1.605 -0.248,-4.51 -0.291,-5.388c-2.049,-1.421 -3.463,-3.587 -3.938,-6.035c-0.256,-7.325 0.202,-14.658 1.367,-21.895c0.768,-3.789 1.317,-7.62 1.644,-11.473c0.037,-0.973 -0.02,-2.385 -0.02,-3.435c0.04,-0.403 0.061,-0.809 0.061,-1.214c-0,-6.655 -5.477,-12.131 -12.132,-12.131c-6.655,-0 -12.131,5.476 -12.131,12.131c-0,0.409 0.021,0.818 0.062,1.226c-0,0.114 0.026,0.223 0.029,0.337c-0.012,1.001 -0.061,2.214 -0.029,3.089c0.33,3.855 0.88,7.689 1.647,11.482c1.158,7.235 1.608,14.566 1.344,21.889c-0.685,2.411 -2.044,4.576 -3.918,6.24l-0.286,5.108c-7.343,0.606 -14.634,1.727 -21.82,3.355c-30.186,6.821 -57.653,22.514 -78.858,45.054c-1.468,-1.013 -2.923,-2.044 -4.364,-3.095c-2.387,0.714 -4.961,0.465 -7.167,-0.694c-5.889,-4.36 -11.339,-9.284 -16.272,-14.703c-2.484,-2.962 -5.135,-5.779 -7.942,-8.437c-0.735,-0.629 -1.859,-1.487 -2.683,-2.142c-2.392,-1.929 -5.342,-3.042 -8.413,-3.174c-3.699,-0.194 -7.276,1.389 -9.618,4.258c-4.046,5.701 -2.709,13.716 2.969,17.794l0.186,0.132c0.789,0.646 1.761,1.473 2.493,2.008c3.221,2.142 6.562,4.098 10.007,5.856c6.379,3.612 12.39,7.838 17.948,12.618c1.444,2.048 2.285,4.46 2.428,6.961l3.864,3.455c-21.336,32.012 -30.11,70.805 -24.626,108.883l-5.053,1.47c-1.319,2.106 -3.092,3.891 -5.188,5.225c-7.079,1.889 -14.325,3.084 -21.635,3.566c-3.875,0.088 -7.741,0.399 -11.58,0.932c-0.926,0.172 -2.213,0.498 -3.223,0.75l-0.105,0.023l-0.172,0.051c-6.001,0.789 -10.536,5.959 -10.536,12.011c-0,6.646 5.468,12.115 12.114,12.115c1.286,-0 2.563,-0.205 3.784,-0.607l0.18,-0.028c0.08,-0.017 0.149,-0.057 0.229,-0.072c0.995,-0.226 2.248,-0.466 3.123,-0.703c3.685,-1.177 7.3,-2.562 10.828,-4.15c6.796,-2.741 13.844,-4.815 21.042,-6.192c2.496,0.153 4.9,1.002 6.938,2.451l5.262,-0.901c11.81,36.486 36.582,67.413 69.609,86.903l-2.199,5.262c1.022,2.12 1.397,4.495 1.078,6.826c-3.008,6.877 -6.666,13.45 -10.924,19.63c-2.342,3.088 -4.502,6.307 -6.472,9.644c-0.481,0.909 -1.09,2.302 -1.55,3.254c-1.133,1.885 -1.731,4.043 -1.731,6.242c-0,6.649 5.471,12.12 12.12,12.12c5.101,0 9.68,-3.22 11.406,-8.02l0.02,-0.023l-0,-0.029c0.457,-0.943 1.106,-2.182 1.492,-3.066c1.375,-3.617 2.538,-7.31 3.484,-11.062c2.084,-7.63 5.23,-14.929 9.346,-21.683c1.439,-1.35 3.252,-2.236 5.202,-2.54l2.737,-4.947c35.82,13.774 75.49,13.875 111.379,0.283c0.767,1.367 2.197,3.981 2.574,4.642c2.465,0.393 4.679,1.739 6.163,3.746c3.417,6.478 6.193,13.275 8.288,20.293c0.954,3.752 2.124,7.445 3.503,11.062c0.392,0.893 1.03,2.148 1.493,3.095c1.723,4.808 6.307,8.036 11.415,8.036c6.652,-0 12.126,-5.474 12.126,-12.126c0,-2.192 -0.594,-4.344 -1.72,-6.226c-0.461,-0.952 -1.095,-2.345 -1.573,-3.249c-1.97,-3.329 -4.131,-6.541 -6.472,-9.62c-4.182,-6.023 -7.767,-12.441 -10.701,-19.161c-0.637,-2.402 -0.304,-4.961 0.926,-7.121c-0.772,-1.579 -1.444,-3.206 -2.01,-4.87c33.133,-19.648 57.907,-50.815 69.574,-87.527c1.562,0.249 4.281,0.724 5.165,0.904c1.835,-1.684 4.259,-2.585 6.749,-2.508c7.201,1.376 14.25,3.449 21.049,6.192c3.527,1.601 7.144,2.997 10.833,4.181c0.872,0.229 2.116,0.446 3.117,0.666c0.083,0.023 0.157,0.06 0.237,0.08l0.172,0.026c1.219,0.4 2.494,0.604 3.777,0.604c6.646,-0 12.114,-5.469 12.114,-12.114c0,-6.047 -4.526,-11.214 -10.52,-12.009l-0,-0Zm-114.68,-122.937l-51.584,36.569l-0.18,-0.083c-1.822,1.329 -4.019,2.045 -6.274,2.045c-5.659,0 -10.38,-4.511 -10.636,-10.164l-0.057,-0.026l-3.584,-63.214c27.269,3.386 52.684,15.643 72.312,34.873l0.003,0Zm-97.172,69.289l19.412,-0l12.069,15.088l-4.327,18.821l-17.434,8.388l-17.485,-8.408l-4.335,-18.826l12.1,-15.063Zm-18.263,-101.948c4.252,-0.957 8.55,-1.696 12.878,-2.214l-3.59,63.309l-0.263,0.125c-0.239,5.662 -4.962,10.19 -10.629,10.19c-2.247,0 -4.437,-0.712 -6.255,-2.033l-0.1,0.057l-51.918,-36.812c16.527,-16.241 37.269,-27.542 59.877,-32.622l-0,-0Zm-78.703,56.284l47.399,42.392l-0.052,0.26c2.32,2.02 3.653,4.949 3.653,8.024c0,4.781 -3.222,9.002 -7.834,10.262l-0.048,0.206l-60.758,17.534c-3.027,-27.451 3.182,-55.143 17.64,-78.674l-0,-0.004Zm63.463,112.621l-24.14,58.33c-23.166,-14.829 -40.801,-36.9 -50.151,-62.768l62.296,-10.579l0.106,0.138c0.688,-0.132 1.387,-0.194 2.088,-0.186c5.776,0.085 10.481,4.861 10.481,10.637c-0,1.441 -0.293,2.867 -0.861,4.191l0.181,0.237Zm71.256,75.014c-22.585,5.179 -46.173,3.967 -68.108,-3.5l30.638,-55.401l0.051,-0c1.855,-3.447 5.467,-5.605 9.381,-5.605c3.907,0 7.513,2.15 9.371,5.588l0.229,-0l30.715,55.492c-3.987,1.331 -8.079,2.474 -12.277,3.429l-0,-0.003Zm39.583,-16.45l-24.389,-58.927l0.074,-0.106c-2.233,-5.205 0.056,-11.329 5.157,-13.793c1.273,-0.623 2.659,-0.983 4.075,-1.058c0.819,-0.038 1.64,0.023 2.445,0.18l0.106,-0.131l62.851,10.621c-9.276,26.076 -26.988,48.328 -50.319,63.217l0,-0.003Zm56.92,-92.713l-61.064,-17.588l-0.057,-0.258c-4.605,-1.27 -7.819,-5.491 -7.819,-10.269c-0,-3.073 1.329,-6 3.644,-8.022l-0.023,-0.123l47.136,-42.186c14.431,23.47 20.816,51.021 18.18,78.446l0.003,-0Z" style="fill:#326ce5;fill-rule:nonzero;"/></svg>